<mxfile host="app.diagrams.net" agent="Mozilla/5.0 (X11; Linux x86_64) AppleWebKit/537.36 (KHTML, like Gecko) Chrome/128.0.0.0 Safari/537.36" version="24.7.14">
  <diagram name="PÃ¡gina-1" id="JJCy2TIlvsyZjUuUj7gz">
    <mxGraphModel dx="2191" dy="1962" grid="1" gridSize="10" guides="1" tooltips="1" connect="1" arrows="1" fold="1" page="1" pageScale="1" pageWidth="827" pageHeight="1169" math="0" shadow="0">
      <root>
        <mxCell id="0" />
        <mxCell id="1" parent="0" />
        <mxCell id="reO2KJ7Pkq1TfIN1_1v6-2" value="client-socket-app-container" style="rounded=1;whiteSpace=wrap;html=1;verticalAlign=top;" vertex="1" parent="1">
          <mxGeometry x="-350" y="-80" width="440" height="260" as="geometry" />
        </mxCell>
        <mxCell id="reO2KJ7Pkq1TfIN1_1v6-4" value="APPLICATION" style="rounded=0;whiteSpace=wrap;html=1;horizontal=1;verticalAlign=top;fillColor=#6a00ff;fontColor=#ffffff;strokeColor=#3700CC;" vertex="1" parent="1">
          <mxGeometry x="-269" y="-20" width="280" height="190" as="geometry" />
        </mxCell>
        <mxCell id="reO2KJ7Pkq1TfIN1_1v6-7" value="client_socket.py" style="rounded=0;whiteSpace=wrap;html=1;" vertex="1" parent="1">
          <mxGeometry x="-189" y="20" width="120" height="60" as="geometry" />
        </mxCell>
        <mxCell id="reO2KJ7Pkq1TfIN1_1v6-11" value="" style="shape=image;verticalLabelPosition=bottom;labelBackgroundColor=default;verticalAlign=top;aspect=fixed;imageAspect=0;image=data:image/png,iVBORw0KGgoAAAANSUhEUgAAASwAAACoCAMAAABt9SM9AAABLFBMVEUIITUklu4kl/ElluwlmvRASlZJqfodL0AIITYjlvEimvg6gL0AFCQ/gbwjmfVHl9wzg8YCCw0VVooeS3EAGSoADhwnnfM5Yo4AAAAGHC89WHwAHjIKGyoAABInMkM9UmY1mOo1PEZTgKRDn+tHdqQld7xJXHI+TFgIIjMAFy0IIDkADSIAGScAEyEAAAoZJzYXMkk7ZY9TaogbK0IpPlk2bZwAEygADBYCHSoHDCIADikZN1Q/bJBDj84qRl9YgqxDoug7kNpBf7EAExFKj8cvTGgULkUfVYIyQ1c2OD40kt09U24pUnoXICZASF0iOEogMDgWJD8AHyUwRk8jZJhQj8NBR2YAGBI/idcGJC9Lqf9Gc5gXGiU9X4ZPV2ovZ5Zng5w3ndxBWIN4k6tDZS8OAAAOb0lEQVR4nO2dgX+buBXHAam2kLHsXICMQFp1pC0mpo4X23ht8Gpfksuc5Jztul2ujXe37f//H/aEDXZzubZJc0tN9L32PjIGCj8/Pb0nCaEoEolEIpFIJBKJRCKRSCQSiUQikUgkEolEIpE8IMiiRD6ym0TQt/5spay9Cu77Wr52zCm28Qy/dd8X87VjthlSUxDfc+/7ar5yzI1MLBU9lmJ9nIVYSIr1KaRYN0CKdQOkWDfA3KDSwX8u5j5mWgrju1Ksj+O+3p7zft+574v5arAydhxi7hjzskkaL7f+kLK1Fd73NX4tGEltTjJobuQftncOk+zDgUx3ZrgvsIr01I+zv7x8Rudl+mYrd/Cadr2Df3iOzH1E0RwMYmVlzf8DhA5z+DViEcXZdZzljpwHgPuIzQMEVfvj1rPMmlAq1sfiLM97MxxY//8Lvk9uK1bQGFEVd799UL7/tmI5Awxf2dX+PVzzvbEkFruJWNaBJr7CI+sBdaPe0rLccvotUul+VHQfTzJALKzNmVnWrIzevGyzrCzECub7p3ZElOa2lkoJX3aKHt8Hzk+zAgm8es5h1M6KF11jPd9ehf0yRx6IAlHihPJ55a1G93UX/yc8z/FSnICsxWtznMDIirGlOPHLeXlNCbw5fc8Tx5Pzd3pWSelhsaPTvbfffTNjI+htzIvfvD1qHGblb9Ybu3n5O8fJ9v/um104PnCPmZqJxSpRVqcLOMAYNP5E54NcmD5/uij/cauSldmblxv5F/bjPZQVcdtUlND5U94scN2PiAt4hWwWQaz8VunzR3ieDqatYT6ikzr4vDXcQ9l2tiHEMqf5GZDOnr48fvT00V+3ItMrnGkti8WWxGKfIxYVYhGzjdVcLTR+YzPGcKm+PYjcgmWLV8T6nDjrKO9hTi0rMJ/nRy2hMZ4cN4uVAN2BWO6EZa3hMrqu4WmxEqCPicU+SyyIs3z1GrFALrRt3vf93SlXxKLZbQuflbuiqz4rF6udimGMtGul0u1JsQL6K60hzYUDsTIJ9CWx1GvEco/5NWohhIsTz5M0xVMaJ6UMv9Py8/L+TiX/omJN8/J4by/fqXTqhCGc5GX1qligp66Nzwrj3wPFTTH2ynP2mo1W+Wj+wXC8rLhrOs1sn3Kr2WwtykG/348enyZXfZYQCxcoqyZR+UXKo5zlj6K0XM74Hlj60PlPN+E2vSoWRGv21LjvW7w7jO47ygSUwp8ZDNMclm/FUMLzbyD5YYsytW0bEkPEM5E0MaYBG3TmH/eKE5Ga+9eFkl8Ih+hK11Wd2dukSFFDVNOua/C/DKpjhm1e2y4bhcqkrWGWBt4V4Lf4QTLqfrdrNUlQnDqopGLdrVYgljaMI8M0i9MIZlgJ/vT93whdxW2jUAaVYxxcl/1+Ecg+K1ifTIZRvWOXpSLcLVBk9QHGwV03hohPijpaYf5815alVnfu+6Z+L5zTX+UoXwjvFNWwFHdyfY/drdGL0yHzK9xz/mkBboJdJoWK2j8grt2lh0d0u6hNocDo3mkmPT677xv6PXE26acl+FyQetK47xv6PQnKd+i0aLXIlRDEMup35bSQ6recYiY6Gc331w6O3hRQnON1s4CTZpYIA8W+C7EQQmy7sLH7nDCIDu6iPeSqXS14HRRDYc76XbSHujpsFatf9Hr6wzvoAOT8vLA54TKNTfuLtdL4bqEjrJzwbMjQF8QPmoaoXy7WtKLfxunY2u0bRJ1zOnxcvOGJ6wnDuMtuH8dzjVZbD6MOKmIiDblMmHq7LlOqIrvw8dWH9P9WY/xWxsUxPyxud9+1kL+/5vptfDzCo3OnMPOvPpOw3/G1GzWJGtcQwskgCovbM/qbhF5C+Q3axDHFdNgu4DMBn4MHbSK+QZZI/Yup11QeoFkJAhJNRgwCTF1H6DdMDCEdCfPTsH1w2u+JqaT3fdn3hrvzwwjEQKp2fRyhIx3rOmXvht2JVaRparcjNH46rY4p+42mEauY8+p0YhT+wd7PISDEjFqTdnXIGcJMYzMvhihTKUZ+fTTtnFtmqDy0aOEjOKZhRT+cTt933/4jqdcrSeVt9/3JYGJZPbPwPXy3wAtc1zFNs2cYRhQ1G42e40Je9EAbv09ACAmC2f+zp+xFJb3vy5JIJBKJ5K4hkeXdMBUmAYRgv9PlfNW45YPh6U1TPHM03H6IakUJ1dTDm43LNLephn9+gEm0VdNUtu7d6JioDlniqNjTsK7F8lUVr9/MsoyKpmsFn7N2LVKsGyDFugFSrBsgxfo4aVdLw3HEXCrygVhECdIFHkj4YUdMGASKa8J3s76sX4kVOun+6WIaYo0Ik4Qke94QNoiVAWEHt++47qp1rwZK39h5cTz5557X+NCywqjx+LgzOI6jD+8pcOLLJ4PO9604nfxxVazG+aDTVFKxgth8+uL4n3v9vjc/BYkGA0sJGtbl953jF2c/rlZ4Rjxns/JGLNDgJ/t7W0tiGeVuzaaU2aVRp7d0hHu5f1HCcEBpuO+ZV8VyjU2OfRHXBspOZ8RtRu3SsLv795lpeRVqj2Jjs17S4NSli83VCf2hPjWOE1sMcyHONTo8mYkFVTP0ujadL2NB7SrJZhAF5mBIxXoWHP7S8aGxEEvUyl75AOs6SgyFOMrIZmK4Ec6O/bYn1uN0D7GOxydjsUi6GGGz8XRlbCsk/Scc6+LKhSYI61xHwrKC4LyaTisVw6sqstH4h/lNvToVMyg1jafjiBrqxrlYAXGtthhwRbRihNGkJsaBUDpxieu06oG1mZtYQ1o6B1Onmo5W6QmMn6JNYSVwd6WSjRHlQjZhWYFRExOWNeaX3mEqFvzwZ09YGqdY6Grb70p2OqWZ7+ZihdZxgoWILCkrzq4vVnTVKOxo22IuYBLMxMLp/AnK4Z+kDO+vjmVNRC1j49HrVuuoPcRauroVWFZvBPam4uR0r9xar6aLyAytkJD+xNZVHfPtznl59z3UplysKHS8LhfHa3bbc0gr0TmYZHXQau1NL7CucjqyxMxeXbyzgNb2d8vlo/eVFXrUPK5rUBPqe6/AatzmZTcdowex+h24J2a3Y7EaXbAz8MEWxCP0pJ+AnvazcwOqlGOcjbDd9WZivfr2dcI0seh08toQz+FBfaMXA7Fj2P9xH4tfodM0hVgqYqNWalA9c2XsSnEGto60ZM1N5xWH5GUXz8SyEqYj+ySeDXYF5gRpUBFbQXMTdtDqP87jAPBLk4jMxDp762PxAArf74nGtAVmhf0zMz1D+DfrEINp1SMhFlLZyJqfIVidUUejikCTzmzii4ghL2vgwfC6OYGGCmpNGnRC/PiTeQLuDBouqwI10veyyWoOcSHcBLFUtTaEest1fFA2RURqtsG14c1eA6Jdp9E0w62uWCHqKK2G2vgs64wNV2fYMUrAfVSWXjHRnEJNwuuGMCB7kD8fERBryHU2ano+qHu16wrEgq1i2ogGkcTsIPgZNFR7ssRzOCXb7KU+ayV7CuMSiLUU6ATBpS1CB2MbGrpxnG8nSlS1da0eg8Wp9tX1t1PLms3e4rvzaX9RXejHFlBRwem2JaohP17Fx1RihnT8fDFhPSBbb3RE160RRdqzhcURpfkWqzq3jsAs/Ku3KsQSNRAiMsoHTroqt3WBdHV5aSnRoCL9YEtYFn+6kmLBz41OFpZFlK2SsCzrH+BgnsVLe5pvkab51hHEkv7g12KBDv52wsDuxmVP+KzoQtW1VKCc3LL0FRXL1xDbaOafw6AlnNWm1YVEx19+at6AaqjWrQlPY9YPzyIsS691fryEOE3Xa38Wvlv0yyO7tMy7UqlCRGuoraZYUQK/f2IEWQ9MEL2HDMXebaxD7sYWvokElxyqWiW2ahBPjqK8v4WIFzCI0IGN4tCd+GBhtHoWzNa+1YeX+bsKoOSdQda9wmIJR66hdScLBYI9kaBAqF6GFJEmcT6XNhZLPeBN1xiB57cnbra/0mgEqViqSHfM11wfc1yB8Mycwo74517Wt0O8ZoOk6c7KiuXughPWx615E+ZGkNiorG2Q3jZTddaN52NiPZE86/5Z6Ly2IZ0ZX87bBNeYTptk0UVjbfoa5JqQ1ihGDdJzvmvNz2xN36Zvk1lhsZR4BBbD+GHkmE4zelyHKIuOL4kS7nK4aTYqG03Xibx9W4U4YNMM0hCCq+NB3HQbXvykhu1KfyEWidexiGo3IqUxxSo0CRuR6TScqFXFGO8by2IFKxS8zyCtocrBDSWbJ883KyJd0Xk6Ht3YxwwiAb97+q/Dbo1B1G1XDPGyjhbnIpOut0+eTIXTV/nj5c4/42fRwNrTKDCrFHb1h/snzw+7vi+cmbUsFiGr1qVMPDAhcDTporVQwUCTDXHXgRJvIxEbYVssbYs4Q7WW6BIkzQES4ZPYH0OooKNxa1msAI6DeJ4P3KA1ZKJ3jNo2ZlQXiySaM7HS0AH+W7kHXYk3GUK4KYIgaO90yjfT5JkEJO7amvBoetrVxyqBI55CVEi/M4ZtXNXT2In5632rApU068MjccWGijg0iEtENg6Ca5oKiSXrGqnPEt0PT11y9MsvK/jC28ZZl1N1dues3lnkfcaglvaVgtlQH/z4fHPotUbpssmiI8yulpskgnifLl4dcFZletr/6Xltn4qXSMKPYPPDnghQnEOwxn87ijP45Zerwe0KQEJrr5v4EDMmo4G3qBoBCc8Oq+MSflOrT88WD8WRMHw16Q7FARfd457oNjhKSsnihaxBWCnVxIqIRDFa7cR/h0u16uGlN3t/ptct8f+YJAj++98VtCzFIf1mFMfWmmUsPyYB90Ma8Vps7Vhxww3yL4iQownb47U1uGnRg+MYO9GiaSN9Y2dHNBKwCc4AJ9ixIicg86DN2LHSgZ7eqxXU6gu4bV/U6vRhSSQSiUQikUgkEolEIpFIJBKJRCKRSCQSiUTyIf8D2Q6t/tjPttoAAAAASUVORK5CYII=;" vertex="1" parent="1">
          <mxGeometry x="11" y="-110" width="107.14" height="60" as="geometry" />
        </mxCell>
        <mxCell id="reO2KJ7Pkq1TfIN1_1v6-27" value="server-socket-app-container" style="rounded=1;whiteSpace=wrap;html=1;verticalAlign=top;" vertex="1" parent="1">
          <mxGeometry x="240" y="-80" width="440" height="260" as="geometry" />
        </mxCell>
        <mxCell id="reO2KJ7Pkq1TfIN1_1v6-28" value="APPLICATION" style="rounded=0;whiteSpace=wrap;html=1;horizontal=1;verticalAlign=top;fillColor=#6a00ff;fontColor=#ffffff;strokeColor=#3700CC;" vertex="1" parent="1">
          <mxGeometry x="321" y="-20" width="280" height="190" as="geometry" />
        </mxCell>
        <mxCell id="reO2KJ7Pkq1TfIN1_1v6-29" value="" style="shape=image;verticalLabelPosition=bottom;labelBackgroundColor=default;verticalAlign=top;aspect=fixed;imageAspect=0;image=data:image/png,iVBORw0KGgoAAAANSUhEUgAAASwAAACoCAMAAABt9SM9AAABLFBMVEUIITUklu4kl/ElluwlmvRASlZJqfodL0AIITYjlvEimvg6gL0AFCQ/gbwjmfVHl9wzg8YCCw0VVooeS3EAGSoADhwnnfM5Yo4AAAAGHC89WHwAHjIKGyoAABInMkM9UmY1mOo1PEZTgKRDn+tHdqQld7xJXHI+TFgIIjMAFy0IIDkADSIAGScAEyEAAAoZJzYXMkk7ZY9TaogbK0IpPlk2bZwAEygADBYCHSoHDCIADikZN1Q/bJBDj84qRl9YgqxDoug7kNpBf7EAExFKj8cvTGgULkUfVYIyQ1c2OD40kt09U24pUnoXICZASF0iOEogMDgWJD8AHyUwRk8jZJhQj8NBR2YAGBI/idcGJC9Lqf9Gc5gXGiU9X4ZPV2ovZ5Zng5w3ndxBWIN4k6tDZS8OAAAOb0lEQVR4nO2dgX+buBXHAam2kLHsXICMQFp1pC0mpo4X23ht8Gpfksuc5Jztul2ujXe37f//H/aEDXZzubZJc0tN9L32PjIGCj8/Pb0nCaEoEolEIpFIJBKJRCKRSCQSiUQikUgkEolEIpE8IMiiRD6ym0TQt/5spay9Cu77Wr52zCm28Qy/dd8X87VjthlSUxDfc+/7ar5yzI1MLBU9lmJ9nIVYSIr1KaRYN0CKdQOkWDfA3KDSwX8u5j5mWgrju1Ksj+O+3p7zft+574v5arAydhxi7hjzskkaL7f+kLK1Fd73NX4tGEltTjJobuQftncOk+zDgUx3ZrgvsIr01I+zv7x8Rudl+mYrd/Cadr2Df3iOzH1E0RwMYmVlzf8DhA5z+DViEcXZdZzljpwHgPuIzQMEVfvj1rPMmlAq1sfiLM97MxxY//8Lvk9uK1bQGFEVd799UL7/tmI5Awxf2dX+PVzzvbEkFruJWNaBJr7CI+sBdaPe0rLccvotUul+VHQfTzJALKzNmVnWrIzevGyzrCzECub7p3ZElOa2lkoJX3aKHt8Hzk+zAgm8es5h1M6KF11jPd9ehf0yRx6IAlHihPJ55a1G93UX/yc8z/FSnICsxWtznMDIirGlOPHLeXlNCbw5fc8Tx5Pzd3pWSelhsaPTvbfffTNjI+htzIvfvD1qHGblb9Ybu3n5O8fJ9v/um104PnCPmZqJxSpRVqcLOMAYNP5E54NcmD5/uij/cauSldmblxv5F/bjPZQVcdtUlND5U94scN2PiAt4hWwWQaz8VunzR3ieDqatYT6ikzr4vDXcQ9l2tiHEMqf5GZDOnr48fvT00V+3ItMrnGkti8WWxGKfIxYVYhGzjdVcLTR+YzPGcKm+PYjcgmWLV8T6nDjrKO9hTi0rMJ/nRy2hMZ4cN4uVAN2BWO6EZa3hMrqu4WmxEqCPicU+SyyIs3z1GrFALrRt3vf93SlXxKLZbQuflbuiqz4rF6udimGMtGul0u1JsQL6K60hzYUDsTIJ9CWx1GvEco/5NWohhIsTz5M0xVMaJ6UMv9Py8/L+TiX/omJN8/J4by/fqXTqhCGc5GX1qligp66Nzwrj3wPFTTH2ynP2mo1W+Wj+wXC8rLhrOs1sn3Kr2WwtykG/348enyZXfZYQCxcoqyZR+UXKo5zlj6K0XM74Hlj60PlPN+E2vSoWRGv21LjvW7w7jO47ygSUwp8ZDNMclm/FUMLzbyD5YYsytW0bEkPEM5E0MaYBG3TmH/eKE5Ga+9eFkl8Ih+hK11Wd2dukSFFDVNOua/C/DKpjhm1e2y4bhcqkrWGWBt4V4Lf4QTLqfrdrNUlQnDqopGLdrVYgljaMI8M0i9MIZlgJ/vT93whdxW2jUAaVYxxcl/1+Ecg+K1ifTIZRvWOXpSLcLVBk9QHGwV03hohPijpaYf5815alVnfu+6Z+L5zTX+UoXwjvFNWwFHdyfY/drdGL0yHzK9xz/mkBboJdJoWK2j8grt2lh0d0u6hNocDo3mkmPT677xv6PXE26acl+FyQetK47xv6PQnKd+i0aLXIlRDEMup35bSQ6recYiY6Gc331w6O3hRQnON1s4CTZpYIA8W+C7EQQmy7sLH7nDCIDu6iPeSqXS14HRRDYc76XbSHujpsFatf9Hr6wzvoAOT8vLA54TKNTfuLtdL4bqEjrJzwbMjQF8QPmoaoXy7WtKLfxunY2u0bRJ1zOnxcvOGJ6wnDuMtuH8dzjVZbD6MOKmIiDblMmHq7LlOqIrvw8dWH9P9WY/xWxsUxPyxud9+1kL+/5vptfDzCo3OnMPOvPpOw3/G1GzWJGtcQwskgCovbM/qbhF5C+Q3axDHFdNgu4DMBn4MHbSK+QZZI/Yup11QeoFkJAhJNRgwCTF1H6DdMDCEdCfPTsH1w2u+JqaT3fdn3hrvzwwjEQKp2fRyhIx3rOmXvht2JVaRparcjNH46rY4p+42mEauY8+p0YhT+wd7PISDEjFqTdnXIGcJMYzMvhihTKUZ+fTTtnFtmqDy0aOEjOKZhRT+cTt933/4jqdcrSeVt9/3JYGJZPbPwPXy3wAtc1zFNs2cYRhQ1G42e40Je9EAbv09ACAmC2f+zp+xFJb3vy5JIJBKJ5K4hkeXdMBUmAYRgv9PlfNW45YPh6U1TPHM03H6IakUJ1dTDm43LNLephn9+gEm0VdNUtu7d6JioDlniqNjTsK7F8lUVr9/MsoyKpmsFn7N2LVKsGyDFugFSrBsgxfo4aVdLw3HEXCrygVhECdIFHkj4YUdMGASKa8J3s76sX4kVOun+6WIaYo0Ik4Qke94QNoiVAWEHt++47qp1rwZK39h5cTz5557X+NCywqjx+LgzOI6jD+8pcOLLJ4PO9604nfxxVazG+aDTVFKxgth8+uL4n3v9vjc/BYkGA0sJGtbl953jF2c/rlZ4Rjxns/JGLNDgJ/t7W0tiGeVuzaaU2aVRp7d0hHu5f1HCcEBpuO+ZV8VyjU2OfRHXBspOZ8RtRu3SsLv795lpeRVqj2Jjs17S4NSli83VCf2hPjWOE1sMcyHONTo8mYkFVTP0ujadL2NB7SrJZhAF5mBIxXoWHP7S8aGxEEvUyl75AOs6SgyFOMrIZmK4Ec6O/bYn1uN0D7GOxydjsUi6GGGz8XRlbCsk/Scc6+LKhSYI61xHwrKC4LyaTisVw6sqstH4h/lNvToVMyg1jafjiBrqxrlYAXGtthhwRbRihNGkJsaBUDpxieu06oG1mZtYQ1o6B1Onmo5W6QmMn6JNYSVwd6WSjRHlQjZhWYFRExOWNeaX3mEqFvzwZ09YGqdY6Grb70p2OqWZ7+ZihdZxgoWILCkrzq4vVnTVKOxo22IuYBLMxMLp/AnK4Z+kDO+vjmVNRC1j49HrVuuoPcRauroVWFZvBPam4uR0r9xar6aLyAytkJD+xNZVHfPtznl59z3UplysKHS8LhfHa3bbc0gr0TmYZHXQau1NL7CucjqyxMxeXbyzgNb2d8vlo/eVFXrUPK5rUBPqe6/AatzmZTcdowex+h24J2a3Y7EaXbAz8MEWxCP0pJ+AnvazcwOqlGOcjbDd9WZivfr2dcI0seh08toQz+FBfaMXA7Fj2P9xH4tfodM0hVgqYqNWalA9c2XsSnEGto60ZM1N5xWH5GUXz8SyEqYj+ySeDXYF5gRpUBFbQXMTdtDqP87jAPBLk4jMxDp762PxAArf74nGtAVmhf0zMz1D+DfrEINp1SMhFlLZyJqfIVidUUejikCTzmzii4ghL2vgwfC6OYGGCmpNGnRC/PiTeQLuDBouqwI10veyyWoOcSHcBLFUtTaEest1fFA2RURqtsG14c1eA6Jdp9E0w62uWCHqKK2G2vgs64wNV2fYMUrAfVSWXjHRnEJNwuuGMCB7kD8fERBryHU2ano+qHu16wrEgq1i2ogGkcTsIPgZNFR7ssRzOCXb7KU+ayV7CuMSiLUU6ATBpS1CB2MbGrpxnG8nSlS1da0eg8Wp9tX1t1PLms3e4rvzaX9RXejHFlBRwem2JaohP17Fx1RihnT8fDFhPSBbb3RE160RRdqzhcURpfkWqzq3jsAs/Ku3KsQSNRAiMsoHTroqt3WBdHV5aSnRoCL9YEtYFn+6kmLBz41OFpZFlK2SsCzrH+BgnsVLe5pvkab51hHEkv7g12KBDv52wsDuxmVP+KzoQtW1VKCc3LL0FRXL1xDbaOafw6AlnNWm1YVEx19+at6AaqjWrQlPY9YPzyIsS691fryEOE3Xa38Wvlv0yyO7tMy7UqlCRGuoraZYUQK/f2IEWQ9MEL2HDMXebaxD7sYWvokElxyqWiW2ahBPjqK8v4WIFzCI0IGN4tCd+GBhtHoWzNa+1YeX+bsKoOSdQda9wmIJR66hdScLBYI9kaBAqF6GFJEmcT6XNhZLPeBN1xiB57cnbra/0mgEqViqSHfM11wfc1yB8Mycwo74517Wt0O8ZoOk6c7KiuXughPWx615E+ZGkNiorG2Q3jZTddaN52NiPZE86/5Z6Ly2IZ0ZX87bBNeYTptk0UVjbfoa5JqQ1ihGDdJzvmvNz2xN36Zvk1lhsZR4BBbD+GHkmE4zelyHKIuOL4kS7nK4aTYqG03Xibx9W4U4YNMM0hCCq+NB3HQbXvykhu1KfyEWidexiGo3IqUxxSo0CRuR6TScqFXFGO8by2IFKxS8zyCtocrBDSWbJ883KyJd0Xk6Ht3YxwwiAb97+q/Dbo1B1G1XDPGyjhbnIpOut0+eTIXTV/nj5c4/42fRwNrTKDCrFHb1h/snzw+7vi+cmbUsFiGr1qVMPDAhcDTporVQwUCTDXHXgRJvIxEbYVssbYs4Q7WW6BIkzQES4ZPYH0OooKNxa1msAI6DeJ4P3KA1ZKJ3jNo2ZlQXiySaM7HS0AH+W7kHXYk3GUK4KYIgaO90yjfT5JkEJO7amvBoetrVxyqBI55CVEi/M4ZtXNXT2In5632rApU068MjccWGijg0iEtENg6Ca5oKiSXrGqnPEt0PT11y9MsvK/jC28ZZl1N1dues3lnkfcaglvaVgtlQH/z4fHPotUbpssmiI8yulpskgnifLl4dcFZletr/6Xltn4qXSMKPYPPDnghQnEOwxn87ijP45Zerwe0KQEJrr5v4EDMmo4G3qBoBCc8Oq+MSflOrT88WD8WRMHw16Q7FARfd457oNjhKSsnihaxBWCnVxIqIRDFa7cR/h0u16uGlN3t/ptct8f+YJAj++98VtCzFIf1mFMfWmmUsPyYB90Ma8Vps7Vhxww3yL4iQownb47U1uGnRg+MYO9GiaSN9Y2dHNBKwCc4AJ9ixIicg86DN2LHSgZ7eqxXU6gu4bV/U6vRhSSQSiUQikUgkEolEIpFIJBKJRCKRSCQSiUTyIf8D2Q6t/tjPttoAAAAASUVORK5CYII=;" vertex="1" parent="1">
          <mxGeometry x="601" y="-110" width="107.14" height="60" as="geometry" />
        </mxCell>
        <mxCell id="reO2KJ7Pkq1TfIN1_1v6-34" value="" style="shape=flexArrow;endArrow=classic;startArrow=classic;html=1;rounded=0;fillColor=#fa6800;strokeColor=#C73500;" edge="1" parent="1">
          <mxGeometry width="100" height="100" relative="1" as="geometry">
            <mxPoint x="140" y="61" as="sourcePoint" />
            <mxPoint x="200" y="60" as="targetPoint" />
          </mxGeometry>
        </mxCell>
        <mxCell id="reO2KJ7Pkq1TfIN1_1v6-36" value="server_socket.py" style="rounded=0;whiteSpace=wrap;html=1;" vertex="1" parent="1">
          <mxGeometry x="401" y="20" width="120" height="60" as="geometry" />
        </mxCell>
        <mxCell id="reO2KJ7Pkq1TfIN1_1v6-40" value="" style="shape=image;verticalLabelPosition=bottom;labelBackgroundColor=default;verticalAlign=top;aspect=fixed;imageAspect=0;image=data:image/jpeg,/9j/4AAQSkZJRgABAQAAAQABAAD/2wCEAAkGBxERERASEBMTFhUWFhkVFxYVEhgVFxgWGBUbFxYSGBcYHSggGB4lHRoWITEhJSkrLi4uFx8zODMtNygtLisBCgoKDQ0OGxAQGi0lICMzKzcrLy0rLSs1LS82Ky0yLy0vMjcyNzcvKy8tLTgtNS81MC0xLSstNTctNTAtLS83Nf/AABEIAHoBnQMBIgACEQEDEQH/xAAcAAEAAgMBAQEAAAAAAAAAAAAABgcDBAUCAQj/xABLEAABAwIBBgkHCAcIAwEAAAABAAIDBBESBQYHITFxEzRBUWFygZGzIjI1c6GxshRCUlOCkqLBFSQzVIPR0iNDYmOTwtPhF6PwFv/EABoBAQACAwEAAAAAAAAAAAAAAAAEBQEDBgL/xAAuEQEAAgECAwUGBwAAAAAAAAAAAQIDBBESITEFI0FhkRMUUXGBsSIygqHB0fD/2gAMAwEAAhEDEQA/ALxREQERcnOjKZpqaSRnn6mtv9JxtfsFz2LNazadoYtaKxvLdrK+KEXlkYzmxOAvuvtXImzzoW/3pPVjefbayhGRcgT15kkL7AGzpH3cS617DnsCO8LmZcyVJSymKW17Yg4bHNPKO4i3QptdNj34ZtzQranJtxRXksP/APd0XPJ/plZoc9qB2rhi3rRvHtw2VRuKxuK2TpMfm1xq8nkvqjrYpm4onse3nY4OG7VsWdUJk7KUtPIJYXFrh3EfRcPnDoV15Byo2qp4p2i2IaxzOBs5vYQVFzYJx8/BKw54ycvF0ERFHSBERAREQEREBERAREQEREBERAREQEWGrq44ml8r2saPnPcGjvK9QTNe1r2G7XAOaRygi4PcgyKI5057to5TC2Fz3gAklwazyhcbLk9wUuVO6SePydRnwoLNzWyk+qpYp5A0OfiuGggCz3NFrk8gC6qjuj70dTfb8V6kSAiIgIiICIiAiIgIiICIiAiIgIvEr8LSbE2F7AXJ6AOdc+ny2x7ntDJgWGz7x2DTgD7E9Ug9qDpouX+n6f5L8sxHgbXvhN/OwWw7b4tVl02uuARy60H1EWGqqmRNL5HtY0criAN2tBmUU0kH9UZ61vwvW2/POhBtwpO6N9vhXNy3nBk2qjEcssgaHB3kxvBuARytPOVIxY71vEzWfRHy5KWpMRaPVws0s620jHxysc5hdjBZYuBIAIsSARqHLzrlZ15d+WTB4aWta3C0Hba5Jcbcpvs6F1DBkX66o+67/jXkwZE+uqfuu/41Ljgi3Fwzv8kSeOa8PFG3zRFxWNxXXzhZRN4P5E+R3nY+EBFvNwWu0f4u4LiOK3xO8btExtOw4q2tFx/Uf4r/AMlULira0YSBtBc/Wv8AyUbWWiuPeUnSR3iZItf5Yzn9hWWOQO2G6qaZ8V52raJ+qzmto6w9oiLa8iIiAi1q/KEMDcc0jGN53OAueYc56AovWaR6NhswSydLWBo/GQfYgmKKCM0nQX1wSgdBYT3EhSTIeclNWXEL/KAuWOGF4HPblHSLhB10RYK2rjhY6SV7WMG1zjYC5sPbYIM6KP5Kzupqmo4CDG7yS7GW4W2FhYX8q+vmUgQERcvLmXoKMMM5cA8kCzS7Zt2b0HURcrIWcEFZwnAFxwWxYmlvnXtt27CmXc4IKMMM5cMd8OFpd5tr7Nm0IKkzzkc6uqcRJtIQLkmw5hfYOhW/m3xOk9RF4bVS2cNWyaqqJY7lr3lzbixtuViZHz5ooqenje5+JkTGOtG462sAOveEE2VO6SePydRnwq2qCsZNGyWO+F4Dm3FjY9HIql0k8fk6jPhQWBo+9HU32/FepEo3mE8NybTlxAADySTYAcK/WSlbnzQRkjhcZ/y2l4+95p70EkRRSm0g0DzYukZ0vjNvw3spPBM17WvY4OaRcOaQQRzgjagyIiICKLZVz9ooSWtc6Vw1HggCB9okA9l1zGaToL64JbdDmE91x70E8RcXImdNJVnDE+z/AKt4wv7OR3YSu0gIixVNSyNpfI5rGja5zg0DtKDKiiddpCoYzZhklP8AgZq73lt+y6540nQ3/YS26zb91/zQTxFH8iZ40lU4MY8sedjJBhJ6AQS0noBupAgLi0dO8SZSJaQHyNLNXnD5LE245/KBG8LtIggs+TJ/k8kAjfh+TunFm6jK6m4L5PbldwmOS3PZTeEeS3cPcvaIMdRM2NjnvNmtBcTzAC5KqDLuWJKqUveTb5jL6mt5t/OeXuVhZ91OCikA2vLWd5uR3AqqnFWGjpG02V+svO8VfHFY3FHFY3FTEMcVjJQleHFGXxxWNxRxWMlYZCVa+jr0d/Gd+SqdXNm1k51LQwRSapHXkeOYuN8J6QMI3gqr7XvFdLbdN0FZnK3yV9jlLSCP/uhYyV4JXCe0ms7x1dBw7pA11wCOVfVrZOfeMdGpbK7DDk9pjrf4xCutG0zAubnJlJ1NSzTNAc5jdQOy5IaCbcgve3Quko/n96PqdzfEatjyq/J0E2U6trJZTjfcl7hezQCSGtFgNwsFZGT8wqGIDEx0rvpSOJ/C2zfYoJo49IRdV/wFXGgjtfmTQytIEIjPI6MlpHTbYe0FVXlWhmoKosxEPjIcyRuq4PmvHtBGvlGtXsq60t0g/VZht8qM9Oxze6z+9BLs1ctCspmS6g4eTIByPG23QbgjoIWhpI9HT9aPxWqL6Jqwiaoh5HMEg3sdhPeHj7qlGkj0dP1o/FaghGi/j38J/vardVRaL+Pfwn+9qt1AVf6XPMpes/3BWAq/0ueZS9Z/uCDxoi2Vm+L3PUwy3kGnrMAqGl2C+Gz3Nte1/NIvsCh+iLZWb4vc9WGgobOKlZDVVEUYsxjy1ouTYbzrKsXI2ZFDJT08j43Fz4mPceFeLucwEmwdq1lQDO/j1X6wq4s2+J0nqIvDag2qGkZDGyKMWYwBrRcmwHSdZVSaSePydRnwq4lTuknj8nUZ8KDHkXI9dXxxxNJbTx3ALtUYJcXEgD9o65O7ZcKZ0OjikYP7V0kjuU4sDewN1jtJXR0fejqb7fivUiQVZnnmQKaMz0xcYx57Hay0E2DgeUbLg6xtvzYNHGXXQ1Dadx/spTYA7GyW8lw37DvHMrRynCJIZmO2Ojc07i0hUXkE/rNIf86I/wDsagv1VfpEzodI99JC60bfJlIPnu5Y+qNh5zfkGuw8t1vAU88o2sjc4dYDyR32VH5HpeHqYI3XPCSNDtesgu8s357XQTLM/MNssbZ6vFhcLsiBw3adjnuGvXtAFuTXyCVTZk5Pc3DwAHMWveHb7319t1IALbF9QUxndmy+gkY5jnOicfIfsc1w14XEbHcoItex2WU50f5zmqYYZjeaMXv9NmzHvBsDvB5dXUzzoRNRVLSLlrDI3nxM8oW32t2qpc1K4wVlNIDqxhruq84Hew37AgubLlcaennmaASxhcAdhIGq6qCGWoypVxRzS63k2NvIYA0uOFgNtgtznVcq1M8eI1fqne5VdmD6Rpd7/BegsTJ2YtDEBijMruV0hJv9kWaO5ZMoZk0MrSBCIzyOj8kjptsPaCpEiChsv5IfRzuheb2s5rhqxNPmvHNsI6CCrWzCyu+qpGukN3xuMbnHa6wBDj04XNv03UV0tsHDUx5SxwO4OFvee9dbRNxWf158ONBN0REBERBD9Jp/VofXDw3qtXFWnpFp8VE531b2P7zg/wByqhxVnpJ7tWaqO8HFfIonPc1jGlznGwaBck8wC8EqwNG2TWtilq3C7iTHHfkAticN5Nvs9K9581cOOb28GvDinJeKw1sn6PCWh1VMIyfmMAcRvcdV9wO9bh0e0n7xP3M/oUmcSTcr4uTydvaibb1iIhdV0GGI5owdHVH+8T/g/oXz/wAc0f7xP+D+hScleCVqnt7VeX++r37hh+DnZHzXoaRwkY18sg818pBwnnAAAB6bX6V0pZS4knavBK8kqt1evzame8lJxYKY42rASvJK+ErySoE2SIh2MjnyHdb8gt9aWSGWjvzkn8vyW6ux0ETGmpv8FZm/PIo/n96PqdzfEapAo/n96PqdzfEapbWrzRx6Qi6r/gKuNU5o49IRdV/wFXGgKEaWeKwevHhvU3Vd6W6sWpoRtu6Q9GrC3vu/uQcTRkf19vq3/l/0pzpI9HT9aPxWqJ6KKQuqZpeRkeH7T3Aj2Md3qWaR/R0++PxWoIRov49/Cf72q3VUGjJ4FeL8sbwN+o27ge5W+gKv9LnmUvWf7grAVf6XPMpes/3BB40RbKzfF7nqw1XmiLZWb4vc9WGgozO/j1X6wq4s2+J0nqIvDaqdzv49V+sKuLNvidJ6iLw2oOiqd0k8fk6jPhVxKndJPH5Ooz4UFgaPvR1N9vxXqRKO6PvR1N9vxXqRIMVV5j+qfcqGyDxml9dF4jVfNV5j+qfcqGyDxml9dF4jUFwZ8g/o+qt9Ad2IX9iq3Ms/r9Jf6f8AtNlcuV6Ph4JovrI3MvzEtIB71RWTqgwTxSOBBika5w5fJcC5vsIQfoBF5Y8EAg3BFwRyg7CvSDWylbgZr7MDvhKoKjBxx224m233Cu3PGrEVDVOJteMsHWf5DfaVU2Z9CZ62mYBqDxI7qs8o332A7UFs548Rq/VO9yq7MH0jS73+C9WjnjxGr9U73KrswfSNLvf4L0F1IiIKz0uftaXqP+Jq6uibis/rz4ca5Wlz9rS9R/xNXV0TcVn9efDjQTdERAREQa2U6MTwyxO2PaW35rjUew6+xUZWU74nvjkFnsJa4dI/LlB5ir8XDzhzWp6yzpAWyAWEjLB1uY3FnDf2WUnT5oxztPRG1GGckbx1Us4q1Mx/RsPXk8Ry57tGLf3l3+kP6lJMm5IFHSsgD8eFxOLDh84l2y551q7UzUvpbREsaPDemWJmHsleSV8JXglcNNl7EPpK8krLTxtdfE4Ntz8qymlj+tHs/mvddPkvXijb1iP5Ym9Ynafs0yV4JW6aWP61vs/mvbMmNcLtkuOgf9rMaHUWnasRP6q/2z7WkdftLmkpGwuIaNpNl1P0OPp/h/7W1SULY9Y1nnP5Lbh7I1FrxGSNo8ecMW1NIjl1bETA0Bo2AWXpEXVxERG0K0Ufz+9H1O5viNUgUfz+9H1O5viNWRUmQ8qvpJ2TsDXFtxZ17EEWI1bNu1WdkvSDRygcKXQu5Q5pc2/Q9o2b7KD6O2A18YIBBZICCLggsNwQpzlPR9RykuYHwn/LIw/dcCBuFkGbKOfVDE0lsnCO5Gxgm/2iMI71VuVK+auqS8tLnyENYxuuw+axv895U5Zowjv5VQ8jmEbQe8k+5SbIWbNNR64WXeRYyPOJ5HNfYB0ABB5zQyGKOmbGbF7jjkI2YyNg6AAB2X5Vt5eyaKmmmgJtjbYE7A4G7SdzgCugiCgo3TUdQDYsmidsI2HmPO0g8m0FWhknSBRytHDEwv5Q4Etv0PAtbfYrsZczepqwDh2XcBZr2nC8dAPKOg3CjDtGMF9U8tulrSe+w9yDsVmfNBGLiXGfoxtLie2waO0hV3nfnS6ucwYAxjCS0Xu431EuOzkGod5U3pNHFGw3eZZOhzw0fgAPtXL0lZOgp6WnZBGxgMtzhaATaN2snadvKg9aItlZvj9z1Yar/RGz+zqnc72DuaT+asBBTmkPJroa2R5HkS+Ww8hNgHt3g+xwUzzKzppn00MUkjI5I2iMte4NxBowtc0nUbgDVtvdSbKWToqhhjnYHtOux5DzgjW09IUSqNGlMSSyWZo5iWuA6Bdt++6CaseHAFpBB2EG4Paqf0k8fk6jPhVr5KoRTwxQtJIjaGgnabcpsuPlrM2mqpTNKZcRAHkuAGoWGotKD7o+9HU32/FepEtPJGTmU0LIY8WFl7Yjc63Fxubc5K3EGKq8x/VPuVDZB4zS+ui8RqvyRtwQeUW71FaXR9Rxvje0zXY5rhd4tdpBF/J6EEsVX6Rs2XRyOq4W3jfrlAHmP5X9U8vMb8+q0F8IvtQVxmPnrHHG2nqyWhuqOSxIw8jHW2W2A7LbbW1zGXOeha3EaqC3+GRrj91pJ9i5eVcwKOYlzA6En6sgN+4QQOyy5jNGMV9dRIR0MaD36/cgj+e+dXy1zIoA7gmuuNXlSPOoHDttrsBt17gJjmBm0aSMyzC00g1j6DNoZvJ1ncByLo5DzUpKQh0bMT/rHnE7s5G9gC7iDjZ48Rq/VO9yq7MH0jS73+C9XDlGibPFJE++F7S02NjY8xXDyTmRS000c0ZlxMvbE8Ea2lpuMPMSgkqIiCs9Ln7Wl6j/AImrq6JuKz+vPhxruZwZsQVro3TGQFgIGBwG0gm9weZbGQMhxUUbo4S8hzsZxkE3whvIByAIOmiIgIiICIiAtTKfmDf+RW2sNXDjaQNu0b1H1VJvhtWvXZ7xzEWiZcQleSUfcGx2rwSuMtOy0iH0le6eB0jrN3knkWAlbFBV8G65FwRY8+9ZwzjnLWMk/h8S0Wis8PUrKN0dr2IPKPcunkb9n2laVfWcLhawHbfpJXUoYMDA07dp3lXXZ+LH75a2HnSI6+fLki5rW9lEW6s6Ii6BCEREBR/P70fU7m+I1SBR/P70fVbm+I1BXmjj0hF1X/AVcapvRx6Qi6r/AICrkQEREBERARFGcvZ7U9JK6F7JnPbY+S1uHWARrc4c/IgkyrLSvlBrpYIGm5jDnv6C+2EHpsCftBYsraSJ5AW08bYr6sRON/YLAA96183MyqiqfwtVjZGTicX34WS5ubA6xf6R7LoJboxozHRYj/eyOeNwswfDftUtXiGJrGtYwANaA0AbAALADsXtAREQEREBERAREQEREBERAREQEREBERAREQEREBERAREQEREGGemY/wA4duw960pMkD5riN4v7rLolwXzhAoubRafNO968/T7Nlct69Jcr9Du+kO4rJHkcfOcTuFv5rocKF9EoWivZOkid+H95e51OSfF4gpWM80du096zLyHBelPpStI4axtHk0zMzO8iIi9MCIiAhCIg5sWQaVszZ2RMZIL+UwYb4hY3aNR3kXXSREBERAREQFx8q5sUlTIJZ4sTw0Nvje0WBJGprgDtK7CINDJ+RaaDXDDGw/SDBi+9t9q30RAREQEREBERAREQEREBERAREQEREBERAREQEREBERAREQEREBfCF9RBidGvBiK2EQa3AlfREVsIgxNjWQBfUQEREBERAREQEREBERAREQEREBERAREQEREBERAREQEREBERAREQEREBERAREQEREBERAREQf/Z;" vertex="1" parent="1">
          <mxGeometry x="-330" y="-30" width="135.41" height="40" as="geometry" />
        </mxCell>
        <mxCell id="reO2KJ7Pkq1TfIN1_1v6-41" value="" style="shape=image;verticalLabelPosition=bottom;labelBackgroundColor=default;verticalAlign=top;aspect=fixed;imageAspect=0;image=data:image/jpeg,/9j/4AAQSkZJRgABAQAAAQABAAD/2wCEAAkGBxERERASEBMTFhUWFhkVFxYVEhgVFxgWGBUbFxYSGBcYHSggGB4lHRoWITEhJSkrLi4uFx8zODMtNygtLisBCgoKDQ0OGxAQGi0lICMzKzcrLy0rLSs1LS82Ky0yLy0vMjcyNzcvKy8tLTgtNS81MC0xLSstNTctNTAtLS83Nf/AABEIAHoBnQMBIgACEQEDEQH/xAAcAAEAAgMBAQEAAAAAAAAAAAAABgcDBAUCAQj/xABLEAABAwIBBgkHCAcIAwEAAAABAAIDBBESBQYHITFxEzRBUWFygZGzIjI1c6GxshRCUlOCkqLBFSQzVIPR0iNDYmOTwtPhF6PwFv/EABoBAQACAwEAAAAAAAAAAAAAAAAEBQEDBgL/xAAuEQEAAgECAwUGBwAAAAAAAAAAAQIDBBESITEFI0FhkRMUUXGBsSIygqHB0fD/2gAMAwEAAhEDEQA/ALxREQERcnOjKZpqaSRnn6mtv9JxtfsFz2LNazadoYtaKxvLdrK+KEXlkYzmxOAvuvtXImzzoW/3pPVjefbayhGRcgT15kkL7AGzpH3cS617DnsCO8LmZcyVJSymKW17Yg4bHNPKO4i3QptdNj34ZtzQranJtxRXksP/APd0XPJ/plZoc9qB2rhi3rRvHtw2VRuKxuK2TpMfm1xq8nkvqjrYpm4onse3nY4OG7VsWdUJk7KUtPIJYXFrh3EfRcPnDoV15Byo2qp4p2i2IaxzOBs5vYQVFzYJx8/BKw54ycvF0ERFHSBERAREQEREBERAREQEREBERAREQEWGrq44ml8r2saPnPcGjvK9QTNe1r2G7XAOaRygi4PcgyKI5057to5TC2Fz3gAklwazyhcbLk9wUuVO6SePydRnwoLNzWyk+qpYp5A0OfiuGggCz3NFrk8gC6qjuj70dTfb8V6kSAiIgIiICIiAiIgIiICIiAiIgIvEr8LSbE2F7AXJ6AOdc+ny2x7ntDJgWGz7x2DTgD7E9Ug9qDpouX+n6f5L8sxHgbXvhN/OwWw7b4tVl02uuARy60H1EWGqqmRNL5HtY0criAN2tBmUU0kH9UZ61vwvW2/POhBtwpO6N9vhXNy3nBk2qjEcssgaHB3kxvBuARytPOVIxY71vEzWfRHy5KWpMRaPVws0s620jHxysc5hdjBZYuBIAIsSARqHLzrlZ15d+WTB4aWta3C0Hba5Jcbcpvs6F1DBkX66o+67/jXkwZE+uqfuu/41Ljgi3Fwzv8kSeOa8PFG3zRFxWNxXXzhZRN4P5E+R3nY+EBFvNwWu0f4u4LiOK3xO8btExtOw4q2tFx/Uf4r/AMlULira0YSBtBc/Wv8AyUbWWiuPeUnSR3iZItf5Yzn9hWWOQO2G6qaZ8V52raJ+qzmto6w9oiLa8iIiAi1q/KEMDcc0jGN53OAueYc56AovWaR6NhswSydLWBo/GQfYgmKKCM0nQX1wSgdBYT3EhSTIeclNWXEL/KAuWOGF4HPblHSLhB10RYK2rjhY6SV7WMG1zjYC5sPbYIM6KP5Kzupqmo4CDG7yS7GW4W2FhYX8q+vmUgQERcvLmXoKMMM5cA8kCzS7Zt2b0HURcrIWcEFZwnAFxwWxYmlvnXtt27CmXc4IKMMM5cMd8OFpd5tr7Nm0IKkzzkc6uqcRJtIQLkmw5hfYOhW/m3xOk9RF4bVS2cNWyaqqJY7lr3lzbixtuViZHz5ooqenje5+JkTGOtG462sAOveEE2VO6SePydRnwq2qCsZNGyWO+F4Dm3FjY9HIql0k8fk6jPhQWBo+9HU32/FepEo3mE8NybTlxAADySTYAcK/WSlbnzQRkjhcZ/y2l4+95p70EkRRSm0g0DzYukZ0vjNvw3spPBM17WvY4OaRcOaQQRzgjagyIiICKLZVz9ooSWtc6Vw1HggCB9okA9l1zGaToL64JbdDmE91x70E8RcXImdNJVnDE+z/AKt4wv7OR3YSu0gIixVNSyNpfI5rGja5zg0DtKDKiiddpCoYzZhklP8AgZq73lt+y6540nQ3/YS26zb91/zQTxFH8iZ40lU4MY8sedjJBhJ6AQS0noBupAgLi0dO8SZSJaQHyNLNXnD5LE245/KBG8LtIggs+TJ/k8kAjfh+TunFm6jK6m4L5PbldwmOS3PZTeEeS3cPcvaIMdRM2NjnvNmtBcTzAC5KqDLuWJKqUveTb5jL6mt5t/OeXuVhZ91OCikA2vLWd5uR3AqqnFWGjpG02V+svO8VfHFY3FHFY3FTEMcVjJQleHFGXxxWNxRxWMlYZCVa+jr0d/Gd+SqdXNm1k51LQwRSapHXkeOYuN8J6QMI3gqr7XvFdLbdN0FZnK3yV9jlLSCP/uhYyV4JXCe0ms7x1dBw7pA11wCOVfVrZOfeMdGpbK7DDk9pjrf4xCutG0zAubnJlJ1NSzTNAc5jdQOy5IaCbcgve3Quko/n96PqdzfEatjyq/J0E2U6trJZTjfcl7hezQCSGtFgNwsFZGT8wqGIDEx0rvpSOJ/C2zfYoJo49IRdV/wFXGgjtfmTQytIEIjPI6MlpHTbYe0FVXlWhmoKosxEPjIcyRuq4PmvHtBGvlGtXsq60t0g/VZht8qM9Oxze6z+9BLs1ctCspmS6g4eTIByPG23QbgjoIWhpI9HT9aPxWqL6Jqwiaoh5HMEg3sdhPeHj7qlGkj0dP1o/FaghGi/j38J/vardVRaL+Pfwn+9qt1AVf6XPMpes/3BWAq/0ueZS9Z/uCDxoi2Vm+L3PUwy3kGnrMAqGl2C+Gz3Nte1/NIvsCh+iLZWb4vc9WGgobOKlZDVVEUYsxjy1ouTYbzrKsXI2ZFDJT08j43Fz4mPceFeLucwEmwdq1lQDO/j1X6wq4s2+J0nqIvDag2qGkZDGyKMWYwBrRcmwHSdZVSaSePydRnwq4lTuknj8nUZ8KDHkXI9dXxxxNJbTx3ALtUYJcXEgD9o65O7ZcKZ0OjikYP7V0kjuU4sDewN1jtJXR0fejqb7fivUiQVZnnmQKaMz0xcYx57Hay0E2DgeUbLg6xtvzYNHGXXQ1Dadx/spTYA7GyW8lw37DvHMrRynCJIZmO2Ojc07i0hUXkE/rNIf86I/wDsagv1VfpEzodI99JC60bfJlIPnu5Y+qNh5zfkGuw8t1vAU88o2sjc4dYDyR32VH5HpeHqYI3XPCSNDtesgu8s357XQTLM/MNssbZ6vFhcLsiBw3adjnuGvXtAFuTXyCVTZk5Pc3DwAHMWveHb7319t1IALbF9QUxndmy+gkY5jnOicfIfsc1w14XEbHcoItex2WU50f5zmqYYZjeaMXv9NmzHvBsDvB5dXUzzoRNRVLSLlrDI3nxM8oW32t2qpc1K4wVlNIDqxhruq84Hew37AgubLlcaennmaASxhcAdhIGq6qCGWoypVxRzS63k2NvIYA0uOFgNtgtznVcq1M8eI1fqne5VdmD6Rpd7/BegsTJ2YtDEBijMruV0hJv9kWaO5ZMoZk0MrSBCIzyOj8kjptsPaCpEiChsv5IfRzuheb2s5rhqxNPmvHNsI6CCrWzCyu+qpGukN3xuMbnHa6wBDj04XNv03UV0tsHDUx5SxwO4OFvee9dbRNxWf158ONBN0REBERBD9Jp/VofXDw3qtXFWnpFp8VE531b2P7zg/wByqhxVnpJ7tWaqO8HFfIonPc1jGlznGwaBck8wC8EqwNG2TWtilq3C7iTHHfkAticN5Nvs9K9581cOOb28GvDinJeKw1sn6PCWh1VMIyfmMAcRvcdV9wO9bh0e0n7xP3M/oUmcSTcr4uTydvaibb1iIhdV0GGI5owdHVH+8T/g/oXz/wAc0f7xP+D+hScleCVqnt7VeX++r37hh+DnZHzXoaRwkY18sg818pBwnnAAAB6bX6V0pZS4knavBK8kqt1evzame8lJxYKY42rASvJK+ErySoE2SIh2MjnyHdb8gt9aWSGWjvzkn8vyW6ux0ETGmpv8FZm/PIo/n96PqdzfEapAo/n96PqdzfEapbWrzRx6Qi6r/gKuNU5o49IRdV/wFXGgKEaWeKwevHhvU3Vd6W6sWpoRtu6Q9GrC3vu/uQcTRkf19vq3/l/0pzpI9HT9aPxWqJ6KKQuqZpeRkeH7T3Aj2Md3qWaR/R0++PxWoIRov49/Cf72q3VUGjJ4FeL8sbwN+o27ge5W+gKv9LnmUvWf7grAVf6XPMpes/3BB40RbKzfF7nqw1XmiLZWb4vc9WGgozO/j1X6wq4s2+J0nqIvDaqdzv49V+sKuLNvidJ6iLw2oOiqd0k8fk6jPhVxKndJPH5Ooz4UFgaPvR1N9vxXqRKO6PvR1N9vxXqRIMVV5j+qfcqGyDxml9dF4jVfNV5j+qfcqGyDxml9dF4jUFwZ8g/o+qt9Ad2IX9iq3Ms/r9Jf6f8AtNlcuV6Ph4JovrI3MvzEtIB71RWTqgwTxSOBBika5w5fJcC5vsIQfoBF5Y8EAg3BFwRyg7CvSDWylbgZr7MDvhKoKjBxx224m233Cu3PGrEVDVOJteMsHWf5DfaVU2Z9CZ62mYBqDxI7qs8o332A7UFs548Rq/VO9yq7MH0jS73+C9WjnjxGr9U73KrswfSNLvf4L0F1IiIKz0uftaXqP+Jq6uibis/rz4ca5Wlz9rS9R/xNXV0TcVn9efDjQTdERAREQa2U6MTwyxO2PaW35rjUew6+xUZWU74nvjkFnsJa4dI/LlB5ir8XDzhzWp6yzpAWyAWEjLB1uY3FnDf2WUnT5oxztPRG1GGckbx1Us4q1Mx/RsPXk8Ry57tGLf3l3+kP6lJMm5IFHSsgD8eFxOLDh84l2y551q7UzUvpbREsaPDemWJmHsleSV8JXglcNNl7EPpK8krLTxtdfE4Ntz8qymlj+tHs/mvddPkvXijb1iP5Ym9Ynafs0yV4JW6aWP61vs/mvbMmNcLtkuOgf9rMaHUWnasRP6q/2z7WkdftLmkpGwuIaNpNl1P0OPp/h/7W1SULY9Y1nnP5Lbh7I1FrxGSNo8ecMW1NIjl1bETA0Bo2AWXpEXVxERG0K0Ufz+9H1O5viNUgUfz+9H1O5viNWRUmQ8qvpJ2TsDXFtxZ17EEWI1bNu1WdkvSDRygcKXQu5Q5pc2/Q9o2b7KD6O2A18YIBBZICCLggsNwQpzlPR9RykuYHwn/LIw/dcCBuFkGbKOfVDE0lsnCO5Gxgm/2iMI71VuVK+auqS8tLnyENYxuuw+axv895U5Zowjv5VQ8jmEbQe8k+5SbIWbNNR64WXeRYyPOJ5HNfYB0ABB5zQyGKOmbGbF7jjkI2YyNg6AAB2X5Vt5eyaKmmmgJtjbYE7A4G7SdzgCugiCgo3TUdQDYsmidsI2HmPO0g8m0FWhknSBRytHDEwv5Q4Etv0PAtbfYrsZczepqwDh2XcBZr2nC8dAPKOg3CjDtGMF9U8tulrSe+w9yDsVmfNBGLiXGfoxtLie2waO0hV3nfnS6ucwYAxjCS0Xu431EuOzkGod5U3pNHFGw3eZZOhzw0fgAPtXL0lZOgp6WnZBGxgMtzhaATaN2snadvKg9aItlZvj9z1Yar/RGz+zqnc72DuaT+asBBTmkPJroa2R5HkS+Ww8hNgHt3g+xwUzzKzppn00MUkjI5I2iMte4NxBowtc0nUbgDVtvdSbKWToqhhjnYHtOux5DzgjW09IUSqNGlMSSyWZo5iWuA6Bdt++6CaseHAFpBB2EG4Paqf0k8fk6jPhVr5KoRTwxQtJIjaGgnabcpsuPlrM2mqpTNKZcRAHkuAGoWGotKD7o+9HU32/FepEtPJGTmU0LIY8WFl7Yjc63Fxubc5K3EGKq8x/VPuVDZB4zS+ui8RqvyRtwQeUW71FaXR9Rxvje0zXY5rhd4tdpBF/J6EEsVX6Rs2XRyOq4W3jfrlAHmP5X9U8vMb8+q0F8IvtQVxmPnrHHG2nqyWhuqOSxIw8jHW2W2A7LbbW1zGXOeha3EaqC3+GRrj91pJ9i5eVcwKOYlzA6En6sgN+4QQOyy5jNGMV9dRIR0MaD36/cgj+e+dXy1zIoA7gmuuNXlSPOoHDttrsBt17gJjmBm0aSMyzC00g1j6DNoZvJ1ncByLo5DzUpKQh0bMT/rHnE7s5G9gC7iDjZ48Rq/VO9yq7MH0jS73+C9XDlGibPFJE++F7S02NjY8xXDyTmRS000c0ZlxMvbE8Ea2lpuMPMSgkqIiCs9Ln7Wl6j/AImrq6JuKz+vPhxruZwZsQVro3TGQFgIGBwG0gm9weZbGQMhxUUbo4S8hzsZxkE3whvIByAIOmiIgIiICIiAtTKfmDf+RW2sNXDjaQNu0b1H1VJvhtWvXZ7xzEWiZcQleSUfcGx2rwSuMtOy0iH0le6eB0jrN3knkWAlbFBV8G65FwRY8+9ZwzjnLWMk/h8S0Wis8PUrKN0dr2IPKPcunkb9n2laVfWcLhawHbfpJXUoYMDA07dp3lXXZ+LH75a2HnSI6+fLki5rW9lEW6s6Ii6BCEREBR/P70fU7m+I1SBR/P70fVbm+I1BXmjj0hF1X/AVcapvRx6Qi6r/AICrkQEREBERARFGcvZ7U9JK6F7JnPbY+S1uHWARrc4c/IgkyrLSvlBrpYIGm5jDnv6C+2EHpsCftBYsraSJ5AW08bYr6sRON/YLAA96183MyqiqfwtVjZGTicX34WS5ubA6xf6R7LoJboxozHRYj/eyOeNwswfDftUtXiGJrGtYwANaA0AbAALADsXtAREQEREBERAREQEREBERAREQEREBERAREQEREBERAREQEREGGemY/wA4duw960pMkD5riN4v7rLolwXzhAoubRafNO968/T7Nlct69Jcr9Du+kO4rJHkcfOcTuFv5rocKF9EoWivZOkid+H95e51OSfF4gpWM80du096zLyHBelPpStI4axtHk0zMzO8iIi9MCIiAhCIg5sWQaVszZ2RMZIL+UwYb4hY3aNR3kXXSREBERAREQFx8q5sUlTIJZ4sTw0Nvje0WBJGprgDtK7CINDJ+RaaDXDDGw/SDBi+9t9q30RAREQEREBERAREQEREBERAREQEREBERAREQEREBERAREQEREBfCF9RBidGvBiK2EQa3AlfREVsIgxNjWQBfUQEREBERAREQEREBERAREQEREBERAREQEREBERAREQEREBERAREQEREBERAREQEREBERAREQf/Z;" vertex="1" parent="1">
          <mxGeometry x="250" y="-30" width="135.41" height="40" as="geometry" />
        </mxCell>
      </root>
    </mxGraphModel>
  </diagram>
</mxfile>
